solid OpenSCAD_Model
  facet normal -1 0 0
    outer loop
      vertex 0 0 0
      vertex 0 50 2
      vertex 0 50 0
    endloop
  endfacet
  facet normal -1 -0 0
    outer loop
      vertex 0 50 2
      vertex 0 0 0
      vertex 0 0 2
    endloop
  endfacet
  facet normal 0 0 1
    outer loop
      vertex 35.1508 50 2
      vertex 0 50 2
      vertex 18.7383 33.5876 2
    endloop
  endfacet
  facet normal -0 0 1
    outer loop
      vertex 33.5876 18.7383 2
      vertex 50 0 2
      vertex 50 35.1508 2
    endloop
  endfacet
  facet normal 0 0 1
    outer loop
      vertex 0 0 2
      vertex 33.5876 18.7383 2
      vertex 18.7383 33.5876 2
    endloop
  endfacet
  facet normal 0 0 1
    outer loop
      vertex 0 0 2
      vertex 18.7383 33.5876 2
      vertex 0 50 2
    endloop
  endfacet
  facet normal 0 0 1
    outer loop
      vertex 33.5876 18.7383 2
      vertex 0 0 2
      vertex 50 0 2
    endloop
  endfacet
  facet normal 1 -0 0
    outer loop
      vertex 50 0 2
      vertex 50 35.1508 0
      vertex 50 35.1508 2
    endloop
  endfacet
  facet normal 1 0 0
    outer loop
      vertex 50 35.1508 0
      vertex 50 0 2
      vertex 50 0 0
    endloop
  endfacet
  facet normal 0 0 -1
    outer loop
      vertex 50 0 0
      vertex 33.5876 18.7383 0
      vertex 50 35.1508 0
    endloop
  endfacet
  facet normal 0 0 -1
    outer loop
      vertex 0 0 0
      vertex 33.5876 18.7383 0
      vertex 50 0 0
    endloop
  endfacet
  facet normal -0 0 -1
    outer loop
      vertex 33.5876 18.7383 0
      vertex 0 0 0
      vertex 18.7383 33.5876 0
    endloop
  endfacet
  facet normal 0 0 -1
    outer loop
      vertex 18.7383 33.5876 0
      vertex 0 50 0
      vertex 35.1508 50 0
    endloop
  endfacet
  facet normal 0 0 -1
    outer loop
      vertex 0 50 0
      vertex 18.7383 33.5876 0
      vertex 0 0 0
    endloop
  endfacet
  facet normal 0 -1 0
    outer loop
      vertex 0 0 0
      vertex 50 0 2
      vertex 0 0 2
    endloop
  endfacet
  facet normal 0 -1 -0
    outer loop
      vertex 50 0 2
      vertex 0 0 0
      vertex 50 0 0
    endloop
  endfacet
  facet normal 0 1 -0
    outer loop
      vertex 35.1508 50 0
      vertex 0 50 2
      vertex 35.1508 50 2
    endloop
  endfacet
  facet normal 0 1 0
    outer loop
      vertex 0 50 2
      vertex 35.1508 50 0
      vertex 0 50 0
    endloop
  endfacet
  facet normal 0.707107 -0.707107 0
    outer loop
      vertex 18.7383 33.5876 2
      vertex 35.1508 50 0
      vertex 35.1508 50 2
    endloop
  endfacet
  facet normal 0.707107 -0.707107 0
    outer loop
      vertex 35.1508 50 0
      vertex 18.7383 33.5876 2
      vertex 18.7383 33.5876 0
    endloop
  endfacet
  facet normal -0.707107 0.707107 0
    outer loop
      vertex 50 35.1508 0
      vertex 33.5876 18.7383 2
      vertex 50 35.1508 2
    endloop
  endfacet
  facet normal -0.707107 0.707107 0
    outer loop
      vertex 33.5876 18.7383 2
      vertex 50 35.1508 0
      vertex 33.5876 18.7383 0
    endloop
  endfacet
  facet normal 0.707107 0.707107 0
    outer loop
      vertex 33.5876 18.7383 2
      vertex 18.7383 33.5876 0
      vertex 18.7383 33.5876 2
    endloop
  endfacet
  facet normal 0.707107 0.707107 0
    outer loop
      vertex 18.7383 33.5876 0
      vertex 33.5876 18.7383 2
      vertex 33.5876 18.7383 0
    endloop
  endfacet
endsolid OpenSCAD_Model
